<?xml version="1.0" encoding="UTF-8"?>
<svg id="uuid-77ca27bc-4276-4bdf-b76b-fbd984b5eae8" data-name="Layer 1" xmlns="http://www.w3.org/2000/svg" viewBox="0 0 633.93 875.95">
  <defs>
    <style>
      .uuid-44dfe277-e0fe-48f6-ae2e-c20a005e0203 {
        fill: #231f20;
      }
    </style>
  </defs>
  <g>
    <path class="uuid-44dfe277-e0fe-48f6-ae2e-c20a005e0203" d="M12.85,148.35h82.21c5.84,0,10.95,3.94,12.43,9.6l39.27,150.43,46.07-152.09c1.64-5.42,6.63-9.12,12.29-9.12h73.33c5.65,0,10.64,3.7,12.29,9.1l46.65,153.29,40.41-151.68c1.5-5.62,6.59-9.54,12.41-9.54h80.43c8.63,0,14.46,8.3,11.93,16.56l-91.6,295.02c-1.65,5.4-6.64,9.08-12.28,9.08h-77.56c-5.61,0-10.58-3.65-12.26-9l-47.39-156.33-50.1,156.41c-1.7,5.32-6.65,8.92-12.23,8.92h-77.01c-5.66,0-10.65-3.7-12.29-9.12L.56,164.91c-2.5-8.25,3.68-16.56,12.29-16.56Z"/>
    <path class="uuid-44dfe277-e0fe-48f6-ae2e-c20a005e0203" d="M434.04.57l80.46,18.91c6.79,2.08,10.61,9.28,8.52,16.07l-45.89,146.85c21.74-13.4,63.27,1.8,82.87,7.65,46.35,13.82,83.97,72.85,71.54,129.55l-38.67,140.89c-2.08,6.79-9.09,8.67-16.07,8.52h-61.27c-7.41,0-10.61-9.27-8.52-16.06l24.96-103.61c11.09-36.14-2.55-61.57-30.11-70.02-28.17-8.64-57.27,6.11-68.36,42.24l-43.87,138.58c-2.08,6.79-7.92,8.32-16.07,8.52l-67.11-.59c-6.79-2.08-10.11-7.14-8.02-13.93L417.97,9.09c2.08-6.79,9.28-10.6,16.07-8.52Z"/>
  </g>
  <g>
    <rect class="uuid-44dfe277-e0fe-48f6-ae2e-c20a005e0203" x="92.59" y="559.28" width="491.25" height="43.26" rx="3.43" ry="3.43"/>
    <rect class="uuid-44dfe277-e0fe-48f6-ae2e-c20a005e0203" x="92.46" y="695.98" width="491.25" height="43.26" rx="3.43" ry="3.43"/>
    <rect class="uuid-44dfe277-e0fe-48f6-ae2e-c20a005e0203" x="92.46" y="764.34" width="491.25" height="43.26" rx="3.43" ry="3.43"/>
    <rect class="uuid-44dfe277-e0fe-48f6-ae2e-c20a005e0203" x="92.19" y="832.69" width="201.89" height="43.26" rx="3.43" ry="3.43"/>
    <rect class="uuid-44dfe277-e0fe-48f6-ae2e-c20a005e0203" x="381.96" y="832.69" width="201.89" height="43.26" rx="3.43" ry="3.43"/>
    <rect class="uuid-44dfe277-e0fe-48f6-ae2e-c20a005e0203" x="92.39" y="627.63" width="201.89" height="43.26" rx="3.43" ry="3.43"/>
    <rect class="uuid-44dfe277-e0fe-48f6-ae2e-c20a005e0203" x="382.15" y="627.63" width="201.89" height="43.26" rx="3.43" ry="3.43"/>
    <rect class="uuid-44dfe277-e0fe-48f6-ae2e-c20a005e0203" x="92.13" y="490.92" width="201.89" height="43.26" rx="3.43" ry="3.43"/>
    <rect class="uuid-44dfe277-e0fe-48f6-ae2e-c20a005e0203" x="381.89" y="490.92" width="201.89" height="43.26" rx="3.43" ry="3.43"/>
  </g>
</svg>